<?xml version="1.0" encoding="utf-8"?>
<!-- Generator: Adobe Illustrator 24.0.2, SVG Export Plug-In . SVG Version: 6.00 Build 0)  -->
<svg version="1.1" xmlns="http://www.w3.org/2000/svg" xmlns:xlink="http://www.w3.org/1999/xlink" x="0px" y="0px"
	 viewBox="0 0 500 500" style="enable-background:new 0 0 500 500;" xml:space="preserve">
<style type="text/css">
	.st0{fill:#FFFFFF;}
	.st1{opacity:0.2;fill:url(#SVGID_1_);}
	.st2{opacity:0.2;fill:url(#SVGID_2_);}
	.st3{opacity:0.2;fill:url(#SVGID_3_);}
	.st4{fill:#0D2A38;}
	.st5{fill:#FF5252;}
	.st6{fill:#B33939;}
	.st7{fill:#FF5A71;}
	.st8{fill:#FF808C;}
	.st9{fill:#E69C83;}
	.st10{fill:#814458;}
	.st11{fill:#FFAD91;}
	.st12{fill:#AC5A75;}
	.st13{fill:#E3E6EC;}
	.st14{fill:#4E4864;}
	.st15{fill:#3B364B;}
	.st16{fill:#5F5470;}
	.st17{fill:#4D352C;}
	.st18{fill:#FCFEFE;}
	.st19{fill:#C1C1CC;}
	.st20{fill:#FFCD5E;}
	.st21{fill:#D9DAE4;}
	.st22{fill:#ADA4B1;}
	.st23{fill:#8BD368;}
	.st24{fill:#FE768A;}
	.st25{fill:#34ACE0;}
	.st26{fill:#F7F1E3;}
	.st27{fill:#CFDDF0;}
	.st28{fill:#0A202A;}
	.st29{fill:#11384A;}
	.st30{fill:#FFB142;}
	.st31{fill:#D7E4F6;}
	.st32{fill:#AAA69D;}
	.st33{opacity:0.2;fill:url(#SVGID_4_);}
	.st34{fill:#968BFF;}
	.st35{fill:url(#SVGID_5_);}
	.st36{fill:url(#SVGID_6_);}
	.st37{fill:none;stroke:#CC8E35;stroke-width:0.3665;stroke-linecap:round;stroke-linejoin:round;stroke-miterlimit:10;}
	.st38{fill:#8F81FF;}
	.st39{fill:#9D96FF;}
	.st40{fill:#FDFCF9;}
	.st41{fill:#84817A;}
	.st42{fill:none;stroke:#4E4864;stroke-width:4.6141;stroke-miterlimit:10;}
	.st43{fill:none;stroke:#8BD368;stroke-width:9.2281;stroke-linecap:round;stroke-miterlimit:10;}
	.st44{font-family:'NexaBold';}
	.st45{font-size:11.0738px;}
	.st46{fill:none;stroke:#FFCD5E;stroke-width:9.2281;stroke-linecap:round;stroke-miterlimit:10;}
	.st47{fill:none;stroke:#FE768A;stroke-width:9.2281;stroke-linecap:round;stroke-miterlimit:10;}
	.st48{fill:none;stroke:#968BFF;stroke-width:9.2281;stroke-miterlimit:10;}
	.st49{fill:none;stroke:#C1C1CC;stroke-width:1.5;stroke-linecap:round;stroke-linejoin:round;stroke-miterlimit:10;}
	.st50{font-size:8.1068px;}
	.st51{font-size:5.4265px;}
	.st52{font-size:32.2606px;}
	.st53{font-size:14.0038px;}
	.st54{display:none;}
	.st55{display:inline;}
	.st56{fill:#1D262D;}
</style>
<g id="Background">
	<rect class="st0" width="500" height="500"/>
</g>
<g id="Objects">
	<g>
		<linearGradient id="SVGID_1_" gradientUnits="userSpaceOnUse" x1="212.7725" y1="349.7122" x2="365.9596" y2="435.0724">
			<stop  offset="0" style="stop-color:#000000"/>
			<stop  offset="1" style="stop-color:#000000;stop-opacity:0"/>
		</linearGradient>
		<polygon class="st1" points="365.33,455.07 227.66,375.59 255.98,354.36 264.45,358.16 398.24,436.07 		"/>
		<linearGradient id="SVGID_2_" gradientUnits="userSpaceOnUse" x1="314.0415" y1="295.0899" x2="467.2291" y2="380.4503">
			<stop  offset="0" style="stop-color:#000000"/>
			<stop  offset="1" style="stop-color:#000000;stop-opacity:0"/>
		</linearGradient>
		<polygon class="st2" points="466.6,400.45 328.93,320.97 357.25,299.74 365.72,303.54 499.51,381.45 		"/>
		<linearGradient id="SVGID_3_" gradientUnits="userSpaceOnUse" x1="234.7226" y1="265.8509" x2="345.4738" y2="380.0203">
			<stop  offset="0" style="stop-color:#000000"/>
			<stop  offset="1" style="stop-color:#000000;stop-opacity:0.5"/>
		</linearGradient>
		<polygon class="st3" points="316.38,227.59 419.86,289.28 378.37,313.23 395.77,323.27 325.33,363.59 289.03,384.55 248.3,384.55 
			218.61,401.69 185.59,382.62 163.25,322.28 263.34,255.02 		"/>
		<g>
			<path class="st4" d="M221.68,224.34v-41.97c0-1.93-1.03-3.72-2.71-4.69l0,0l-5.29,3.05v48.61l0,0c1.4,0.81,3.13,0.81,4.53,0
				l0.87-0.5C220.69,227.91,221.68,226.2,221.68,224.34z"/>
			<g>
				<path class="st5" d="M242.17,165.43l-5.83-3.36c-0.19-0.13-0.39-0.25-0.6-0.35l-0.01-0.01l0,0c-0.99-0.45-2.19-0.46-3.27,0.16
					l-20.89,12.06c-3.3,1.91-5.34,5.43-5.34,9.25v6.59c0,1.57,0.96,2.8,2.23,3.32l0,0l5.38,3.14l9.08-9.88l9.58-5.53
					c3.3-1.91,5.34-5.43,5.34-9.25v-1.45L242.17,165.43z"/>
				<path class="st6" d="M217.71,196.42l20.89-12.06c3.3-1.91,5.34-5.43,5.34-9.25v-6.59c0-2.77-2.99-4.49-5.39-3.11l-20.89,12.06
					c-3.3,1.91-5.34,5.43-5.34,9.25v6.59C212.32,196.07,215.32,197.8,217.71,196.42z"/>
			</g>
			<path class="st7" d="M245.6,153.49c0,0,3.72,3.15,5.75,11.73c2.03,8.58,5.08,21.05,5.08,21.05l-7.4,2.47L245.6,153.49z"/>
			<path class="st8" d="M217.94,227.36c0,0-0.39-25.14-0.97-33.26c-0.58-8.12-2.32-24.37,0-29.2c2.32-4.83,8.51-7.54,13.15-9.86
				c4.64-2.32,13.54-6,15.47-1.55c1.93,4.45,7.16,53.8,7.16,53.8L217.94,227.36z"/>
			<path class="st0" d="M237.09,164.82c0,0,0.2,3.76-2.9,3.97c-3.1,0.22-6.07-1.96-7.88-5s-2.56-5.42-2.56-5.42l2.51-3.06
				l13.25,2.24c0,0,3.72,3.34,2.67,7.27C241.38,167.78,237.09,164.82,237.09,164.82z"/>
			<path class="st9" d="M228.13,143.52l-2.16,13.6l0,0c2.19,3.28,5.4,5.74,9.13,7.01l1.99,0.68l0,0c1.58-2.67,2.42-5.71,2.42-8.81
				v-3.77L228.13,143.52z"/>
			<path class="st7" d="M238.49,205.84l-10.92-6.31c0,0-2.18-28.2-4.93-31.83c-2.76-3.63-5.97-3.48-6.83,1.74
				c-0.86,5.22,1.61,34.97,2.91,37.14c1.31,2.17,16.39,9.13,16.39,9.13L238.49,205.84z"/>
			<path class="st10" d="M232.74,124.45c0,0-2.52-3.41-6.77-2.03c-3.8,1.23-3.69,5.22-4.29,10.73c-0.6,5.51-0.16,7.04-1.76,8.16
				c-1.6,1.12-4.12-0.34-4.12-0.34s1.59,5.74,5.88,6.28c4.29,0.54,6.4-0.68,8.2-5.94C231.67,136.05,232.74,124.45,232.74,124.45z"/>
			<path class="st11" d="M246.28,135.62c0,0,0,13.34,0,14.79c0,1.45-1.89,6.24-4.79,7.98c-2.9,1.74-7.74-1.77-9.96-4.12
				c-2.22-2.36-4.47-7.48-4.47-7.48s-2.54,0.15-3.34-2.54c-0.8-2.68,0.07-3.84,1.23-4.06c1.16-0.22,10.59-4.57,10.59-4.57
				S246.62,135.42,246.28,135.62z"/>
			<path class="st12" d="M248.93,138.66c0,0,1.31-7.32-2.65-10.01c-4.23-2.87-4.02-4.93-10.84-5.22
				c-6.82-0.29-10.44,4.93-11.24,8.85c-0.8,3.92-0.31,8.51-0.31,8.51s1.3-0.31,2.07,0.52c0.77,0.83,1.21,1.7,1.21,1.7l2.29,1.32
				l0.76-5.53l2.52-1.91c0,0,1.21,4.17,2.75,4.42C237.04,141.56,248.93,138.66,248.93,138.66z"/>
		</g>
		<polygon class="st13" points="325.33,363.59 325.33,243.69 143.04,138.44 143.04,258.34 		"/>
		<g>
			<path class="st14" d="M132.18,271.7v-41.97c0-1.93-1.03-3.72-2.71-4.69l0,0l-5.29,3.05v48.61l0,0c1.4,0.81,3.13,0.81,4.53,0
				l0.87-0.5C131.19,275.27,132.18,273.56,132.18,271.7z"/>
			<g>
				<path class="st5" d="M152.67,212.79l-5.83-3.36c-0.19-0.13-0.39-0.25-0.6-0.35l-0.01,0l0,0c-0.99-0.45-2.19-0.46-3.27,0.16
					l-20.89,12.06c-3.3,1.91-5.34,5.43-5.34,9.25v6.59c0,1.57,0.96,2.8,2.23,3.32h0l5.38,3.14l9.09-9.88l9.58-5.53
					c3.3-1.91,5.34-5.43,5.34-9.25v-1.45L152.67,212.79z"/>
				<path class="st6" d="M128.21,243.78l20.89-12.06c3.3-1.91,5.34-5.43,5.34-9.25v-6.59c0-2.77-2.99-4.49-5.39-3.11l-20.89,12.06
					c-3.3,1.91-5.34,5.43-5.34,9.25v6.59C122.82,243.43,125.81,245.16,128.21,243.78z"/>
			</g>
			<path class="st15" d="M156.1,200.85c0,0,3.72,3.15,5.75,11.73c2.03,8.58,5.08,21.05,5.08,21.05l-7.4,2.47L156.1,200.85z"/>
			<path class="st16" d="M128.44,274.72c0,0-0.39-25.14-0.97-33.26c-0.58-8.12-2.32-24.37,0-29.2c2.32-4.83,8.51-7.54,13.15-9.86
				c4.64-2.32,13.54-5.99,15.47-1.55c1.93,4.45,7.16,53.8,7.16,53.8L128.44,274.72z"/>
			<path class="st0" d="M136.47,204.48c0,0,4.54,4.93,5.99,8.09c1.45,3.16,8.8,20.86,8.8,20.86s1.26-19.82,0.97-22.92
				c-0.29-3.09-1.64-8.8-1.64-8.8L136.47,204.48z"/>
			<polygon class="st9" points="136.47,189.63 136.47,204.48 141.5,208.58 147.59,209.55 150.01,205.01 150.01,199.59 			"/>
			<path class="st13" d="M150.39,210.71l1.08-4.89c-0.44-2.2-0.89-4.1-0.89-4.1l-3,7.83L150.39,210.71z"/>
			<path class="st13" d="M145.95,212.58l1.64-3.03l-11.12-5.07c0,0,3.23,3.51,5.11,6.51L145.95,212.58z"/>
			<path class="st11" d="M156.77,180.11c0,0,0,13.34,0,14.79c0,1.45-1.89,6.24-4.79,7.98c-2.9,1.74-8.91-0.65-11.13-3.01
				c-2.22-2.36-3.3-8.59-3.3-8.59s-2.54,0.15-3.34-2.54c-0.8-2.68,0.07-3.84,1.23-4.06c1.16-0.22,10.59-4.57,10.59-4.57
				S157.12,179.91,156.77,180.11z"/>
			<path class="st17" d="M134.92,184.98c0,0,1.96-0.84,2.25,0.69c0.24,1.25,0.38,4.81,0.38,4.81l1.81,1.27v-4.97
				c0,0,1.6-0.29,2.83-1.45c1.23-1.16,1.6-3.77,1.6-3.77s3.34,0.36,7.32,0c3.99-0.36,6.31-0.73,7.11-2.9
				c0.8-2.18-2.97-10.88-10.81-10.66c-7.83,0.22-12.58,5.22-13.51,8.56c-0.92,3.34,0.27,9.06,0.27,9.06L134.92,184.98z"/>
			<polygon class="st6" points="145.95,212.58 147.59,214.68 146.38,221.75 151.47,234.4 151.97,220.77 149.53,214.29 
				150.39,210.71 147.59,209.55 			"/>
		</g>
		<polygon class="st18" points="110.13,270.24 196.48,220.24 229.45,239.27 143.09,289.28 		"/>
		<path class="st15" d="M148.99,253.2l-10.93-6.31c0,0-2.18-28.2-4.93-31.83c-2.76-3.63-5.97-3.48-6.83,1.74
			c-0.86,5.22,1.61,34.97,2.91,37.14c1.31,2.17,16.39,9.13,16.39,9.13L148.99,253.2z"/>
		<polygon class="st19" points="152.62,363.59 152.62,243.69 334.91,138.44 334.91,258.34 		"/>
		<polygon class="st20" points="267.73,196.76 276.16,191.9 276.16,203.87 267.73,208.73 		"/>
		<polygon class="st19" points="271.94,271.27 367.87,215.87 367.87,208.06 271.94,263.45 		"/>
		<polygon class="st18" points="271.94,263.45 238.97,244.41 334.91,189.03 367.87,208.06 		"/>
		<g>
			<path class="st21" d="M325.85,214.99c0,0,1.52,1.89,3.46,2.51c1.94,0.62,5.32,1.29,6.51-0.65c1.18-1.94,0.29-3.73-1.93-5.08
				c-2.21-1.35-6.76-0.54-8.05,0.85C324.98,213.57,325.85,214.99,325.85,214.99z"/>
			<path class="st22" d="M329.74,216.77c-1.94-0.62-3.46-2.51-3.46-2.51s-0.53-0.88-0.33-1.72c-0.03,0.03-0.06,0.05-0.09,0.08
				c-0.88,0.95,0,2.37,0,2.37s1.52,1.89,3.46,2.51c1.94,0.62,5.32,1.29,6.51-0.65c0.11-0.18,0.19-0.36,0.26-0.54
				C334.8,217.99,331.61,217.37,329.74,216.77z"/>
		</g>
		<g>
			<path class="st22" d="M325.47,221.12l-3.87-2.23c-0.8-0.46-1.79-0.46-2.58,0L301,229.29l-3.45,1.15v1.31l0.01,0
				c0.01,0.24,0.13,0.48,0.37,0.62l4.42,2.55c0.8,0.46,1.79,0.46,2.58,0l21.09-12.18c0.25-0.15,0.38-0.4,0.38-0.65v-1.28
				L325.47,221.12z"/>
			<path class="st21" d="M297.92,229.78l21.09-12.18c0.8-0.46,1.79-0.46,2.58,0l4.42,2.55c0.5,0.29,0.5,1.01,0,1.3l-21.09,12.18
				c-0.8,0.46-1.79,0.46-2.58,0l-4.42-2.55C297.42,230.8,297.42,230.07,297.92,229.78z"/>
		</g>
		<g>
			<path class="st22" d="M323.24,165.27l-2.62-1.54l-0.01,0.01c-0.68-0.45-1.58-0.55-2.38-0.09l-37.47,21.63
				c-1.23,0.71-1.99,2.02-1.99,3.45v30.18c0,0.83,0.43,1.5,1.04,1.89l-0.01,0.01l2.71,1.59l2.09-2.93l35.03-20.23
				c1.23-0.71,1.99-2.02,1.99-3.45v-28.26L323.24,165.27z"/>
			<g>
				<path class="st22" d="M295.69,208.75v9.43c0,0.94,0.5,1.8,1.31,2.27l3.25,1.88c0.75,0.43,1.68,0.43,2.43,0l8.24-5.24v1.13
					c0,0.9-0.48,1.74-1.27,2.19l-6.45,3.73c-1.07,0.62-2.4,0.62-3.47,0l-3.39-1.96c-1.56-0.9-2.52-2.56-2.52-4.36v-10.41
					L295.69,208.75z"/>
				<path class="st19" d="M310.51,216.37l-3.22-1.86c-0.81-0.47-1.31-1.34-1.31-2.27v-9.42l-10.29,5.94v9.42
					c0,0.94,0.5,1.8,1.31,2.27l3.25,1.88c0.75,0.43,1.67,0.43,2.42,0l7.83-4.52C311.06,217.49,311.06,216.69,310.51,216.37z"/>
			</g>
			<path class="st14" d="M281.29,190.2v27.99l42.86-24.74v-26.35c0-1.75-1.89-2.84-3.4-1.97l-37.47,21.63
				C282.05,187.47,281.29,188.78,281.29,190.2z"/>
			<polygon class="st20" points="283.48,190.36 283.48,212.73 321.27,191.14 321.27,168.54 			"/>
			<path class="st21" d="M281.29,220.38c0,1.75,1.89,2.84,3.4,1.97l37.46-21.63c1.23-0.71,1.99-2.02,1.99-3.45v-5.02l-42.86,24.74
				V220.38z"/>
			<g>
				<polygon class="st23" points="291.82,204.05 288.22,206.13 288.22,196.58 291.82,194.5 				"/>
				<polygon class="st24" points="297.71,200.65 294.11,202.72 294.11,195.93 297.71,193.86 				"/>
				<polygon class="st25" points="303.67,197.21 300.07,199.28 300.07,187.71 303.67,185.63 				"/>
			</g>
			<g>
				<g>
					<polygon class="st26" points="318.72,183.33 308.2,189.39 308.2,188.6 318.72,182.54 					"/>
				</g>
			</g>
			<g>
				<g>
					<polygon class="st26" points="316.75,177.13 308.2,182.05 308.2,180.07 316.75,175.15 					"/>
				</g>
			</g>
			<g>
				<g>
					<polygon class="st26" points="318.72,178.61 308.2,184.67 308.2,183.88 318.72,177.82 					"/>
				</g>
			</g>
			<g>
				<g>
					<polygon class="st26" points="318.72,180.94 308.2,187.01 308.2,186.22 318.72,180.15 					"/>
				</g>
			</g>
			<g>
				<g>
					<polygon class="st26" points="318.72,185.66 308.2,191.73 308.2,190.94 318.72,184.87 					"/>
				</g>
			</g>
			<g>
				<g>
					<polygon class="st26" points="318.72,187.92 308.2,193.98 308.2,193.19 318.72,187.13 					"/>
				</g>
			</g>
			<g>
				<g>
					<polygon class="st26" points="318.72,190.26 308.2,196.32 308.2,195.53 318.72,189.47 					"/>
				</g>
			</g>
		</g>
		<g>
			<path class="st27" d="M339.9,206.28l-15.52-10.16c0,0-2.98,2.04-3.85,5.08c-0.87,3.04-0.51,5.08-0.51,5.08l14.89,9.74
				L339.9,206.28z"/>
			<path class="st11" d="M324.38,196.12c0,0-1.1-2.95-3.52-3.87c-2.42-0.92-4.25-0.35-5.8,0.62c-1.55,0.97-2.2,1.35-2.2,1.35
				s-4.49-2.6-5.31-1.97c-0.82,0.63,0.34,2.11,1.89,3.44c1.55,1.33,4.34,3.74,4.34,3.74s-2.75,0.09-2.87,1.66
				c-0.11,1.56,7.33,2.58,10.71,1.73C325.02,201.97,324.38,196.12,324.38,196.12z"/>
			<path class="st11" d="M330.12,180.89c0,0-1.27,13.49,0.66,16.68c1.93,3.19,6.28,3.89,6.28,3.89l0.74,5.54l12.3-4.17
				c0,0-2.76-18.74-8.98-21.93C334.91,177.7,330.12,180.89,330.12,180.89z"/>
			<path class="st17" d="M334.91,192.87l-1.08-0.62c0,0,0.19-7.2-0.49-8.75c-0.68-1.55-3.58-1.39-4.16-4.03
				c-0.58-2.64-0.48-9.93,0.68-10.93c1.16-1,2.01,0,2.01,0s1.21-2.29,2.53-2.26c1.32,0.03,1.32,1.26,1.32,1.26s1.58-1.16,2.74-1.26
				c1.16-0.1,1.93,1.26,1.93,1.26s1.64-1.85,2.8-1.26c1.16,0.59,0.39,2.26,0.39,2.26s7.54,1.13,11.41,8.57
				c3.87,7.45-0.52,20.89-2.71,23.69c-2.19,2.8-8.61,3.29-10.83,1.55c-2.22-1.74-4.54-7.06-4.54-7.06s2.22,0.48,2.22-3.05
				c0-3.53-1.75-5.75-3.05-5.46C334.79,187.08,334.91,192.87,334.91,192.87z"/>
			<g>
				<path class="st28" d="M332.34,311.76l-0.01,0.02c-0.52-0.25-1.17-0.22-1.89,0.19c-1.68,0.97-3.04,3.58-3.04,5.82
					c0,1.28,0.45,2.14,1.14,2.49l-0.01,0.02l4.75,2.79l3.98-8.43L332.34,311.76z"/>
				<path class="st14" d="M338.28,317.09c0,2.24-1.36,4.85-3.04,5.82c-1.68,0.97-3.04-0.06-3.04-2.3c0-2.24,1.36-4.85,3.04-5.82
					C336.92,313.82,338.28,314.85,338.28,317.09z"/>
				<path class="st15" d="M336.4,318.18c0,0.86-0.52,1.85-1.16,2.22c-0.64,0.37-1.16-0.02-1.16-0.88c0-0.86,0.52-1.85,1.16-2.22
					C335.88,316.93,336.4,317.32,336.4,318.18z"/>
			</g>
			<g>
				<path class="st15" d="M365.47,311.76l0.01,0.02c0.52-0.25,1.17-0.22,1.89,0.19c1.68,0.97,3.04,3.58,3.04,5.82
					c0,1.28-0.45,2.14-1.14,2.49l0.01,0.02l-4.75,2.79l-3.98-8.43L365.47,311.76z"/>
				<path class="st14" d="M359.53,317.09c0,2.24,1.36,4.85,3.04,5.82c1.68,0.97,3.04-0.06,3.04-2.3c0-2.24-1.36-4.85-3.04-5.82
					C360.89,313.82,359.53,314.85,359.53,317.09z"/>
				<path class="st15" d="M361.41,318.18c0,0.86,0.52,1.85,1.16,2.22s1.16-0.02,1.16-0.88c0-0.86-0.52-1.85-1.16-2.22
					S361.41,317.32,361.41,318.18z"/>
			</g>
			<g>
				<path class="st15" d="M337.7,295.23l0.01,0.02c0.46-0.23,1.04-0.2,1.68,0.17c1.49,0.86,2.7,3.17,2.7,5.17
					c0,1.13-0.4,1.9-1.02,2.21l0.01,0.01l-4.21,2.48l-3.53-7.49L337.7,295.23z"/>
				<path class="st14" d="M332.42,299.97c0,1.99,1.21,4.3,2.7,5.17c1.49,0.86,2.7-0.05,2.7-2.04s-1.21-4.3-2.7-5.16
					C333.63,297.06,332.42,297.98,332.42,299.97z"/>
				<path class="st15" d="M334.09,300.93c0,0.76,0.46,1.64,1.03,1.97c0.57,0.33,1.03-0.02,1.03-0.78c0-0.76-0.46-1.65-1.03-1.97
					C334.56,299.82,334.09,300.17,334.09,300.93z"/>
			</g>
			<g>
				<path class="st15" d="M360.96,295.23l-0.01,0.02c-0.46-0.23-1.04-0.2-1.68,0.17c-1.49,0.86-2.7,3.17-2.7,5.17
					c0,1.13,0.4,1.9,1.02,2.21l-0.01,0.01l4.21,2.48l3.53-7.49L360.96,295.23z"/>
				<path class="st14" d="M366.24,299.97c0,1.99-1.21,4.3-2.7,5.17c-1.49,0.86-2.7-0.05-2.7-2.04s1.21-4.3,2.7-5.16
					C365.03,297.06,366.24,297.98,366.24,299.97z"/>
				<path class="st15" d="M364.57,300.93c0,0.76-0.46,1.64-1.03,1.97c-0.57,0.33-1.03-0.02-1.03-0.78c0-0.76,0.46-1.65,1.03-1.97
					C364.11,299.82,364.57,300.17,364.57,300.93z"/>
			</g>
			<polygon class="st15" points="332.48,295.29 333.07,297.75 343.05,304.2 344.49,301.15 			"/>
			<polygon class="st14" points="349.22,300.28 346.46,296.27 335.18,292.77 332.48,295.29 344.53,301.42 			"/>
			<polygon class="st15" points="365.92,295.29 365.33,297.75 355.34,304.2 353.91,301.15 			"/>
			<polygon class="st14" points="349.18,300.28 351.94,296.27 363.21,292.77 365.92,295.29 353.87,301.42 			"/>
			<polygon class="st15" points="327.87,313.26 329.11,315.99 332.84,318.7 349.18,307.97 349.18,302.84 			"/>
			<polygon class="st14" points="345.05,300.28 327.87,313.26 332.15,316.38 349.18,304.78 349.18,300.28 			"/>
			<polygon class="st15" points="370.49,313.26 369.25,315.99 365.52,318.7 349.18,307.97 349.18,302.84 			"/>
			<polygon class="st14" points="353.31,300.28 370.49,313.26 366.21,316.38 349.18,304.78 349.18,300.28 			"/>
			<path class="st14" d="M349.18,306.11L349.18,306.11c-2.59,0-4.69-2.1-4.69-4.69v-21.97h9.38v21.97
				C353.87,304.01,351.77,306.11,349.18,306.11z"/>
			<path class="st29" d="M327.69,293.65c0,0,2.97,2.73,1.96,6.76c-1.01,4.03-4.16,3.59-7.73,5.39c-3.57,1.8-10.44,7.58-13.65,6.67
				c-3.21-0.91-0.09-5.85,3.38-9.41c3.47-3.56,5.98-6.06,5.98-6.06L327.69,293.65z"/>
			<g>
				<path class="st6" d="M368.38,265.45l-16.2-9.35c-1.94-1.12-4.32-1.12-6.25,0l-14.54,8.4l-7-0.18v6.48l0,0
					c0,1.32,0.65,2.64,1.96,3.39l21.9,12.64c1.94,1.12,4.32,1.12,6.25,0l19.59-11.31c1.31-0.75,1.96-2.07,1.96-3.39v-6.48
					L368.38,265.45z"/>
				<path class="st5" d="M326.34,260.92l19.59-11.31c1.94-1.12,4.32-1.12,6.25,0l21.9,12.64c2.61,1.51,2.61,5.28,0,6.78
					l-19.59,11.31c-1.94,1.12-4.32,1.12-6.25,0l-21.9-12.64C323.73,266.19,323.73,262.43,326.34,260.92z"/>
			</g>
			<path class="st15" d="M344.1,243.09l4.95,7.74c0,0-17.06-3.2-24.2-5.54c-6.61-2.17-2.41,13.83-1.44,17.71
				c0.97,3.88,14.69,9.1,23.88,10.65c9.19,1.55,16.92-2.11,20.79-4.82c3.87-2.72,5.22-10.84,3.09-14.8
				C369.05,250.05,344.1,243.09,344.1,243.09z"/>
			<path class="st15" d="M328.74,267.54l-6.77-4.06l6.43,31c0,0-0.99,4.64-6.42,5.72c-2.55,0.5-5.85-1.68-5.85-1.68
				s-10.59-45.96-8.56-51.18c2.03-5.22,12-4.76,19.44-1.13c7.44,3.63,17.48,7.22,17.48,7.22L328.74,267.54z"/>
			<path class="st30" d="M320.02,229.28c0,0-1.88-3.55-3.03-3.38c-1.15,0.17-0.6,1.68-0.6,1.68s-2.35-1.81-3.42-2.03
				c-1.07-0.21-3.97,0.68-5.13,2.99c-1.15,2.31,1.58,4.66,3.89,5.9c2.31,1.24,4.34,1.18,4.34,1.18L320.02,229.28z"/>
			<path class="st31" d="M329.86,212.4l6.89-6.02l15.45-4.93c0,0,8.52,2.07,11.8,10.17s7.18,42.39,7.18,42.39s-9.19,8.07-20.66,8.45
				c-9.28,0.31-12.59-6.14-12.03-11C339.04,246.61,332.28,216.88,329.86,212.4z"/>
			<path class="st27" d="M328.15,230.94c0,0-1.39-15.06,0.91-17.77c3.37-3.98,9.02-0.06,8.73,9.53c-0.16,5.14,0.06,19.05-3.69,19.52
				c-3.75,0.47-18.71-5.76-19-6.63c-0.29-0.87,1.45-6.59,4.93-6.48C323.51,229.21,328.15,230.94,328.15,230.94z"/>
			<g>
				<path class="st5" d="M379.95,223.21l-5.83-3.36c-0.19-0.13-0.39-0.25-0.6-0.35l-0.01-0.01l0,0c-0.99-0.45-2.19-0.46-3.27,0.16
					l-20.89,12.06c-3.3,1.91-5.34,5.43-5.34,9.25v6.59c0,1.57,0.96,2.8,2.23,3.32l0,0l5.38,3.14l9.09-9.88l9.58-5.53
					c3.3-1.91,5.34-5.43,5.34-9.25v-1.45L379.95,223.21z"/>
				<path class="st6" d="M355.49,254.19l20.89-12.06c3.3-1.91,5.34-5.43,5.34-9.25v-6.59c0-2.77-2.99-4.49-5.39-3.11l-20.89,12.06
					c-3.3,1.91-5.34,5.43-5.34,9.25v6.59C350.1,253.84,353.09,255.57,355.49,254.19z"/>
			</g>
			<path class="st14" d="M372.98,275.77v-41.97c0-1.93-1.03-3.72-2.71-4.69l0,0l-5.29,3.05v48.61l0,0c1.4,0.81,3.13,0.81,4.53,0
				l0.87-0.5C371.99,279.34,372.98,277.62,372.98,275.77z"/>
			<polygon class="st27" points="353.68,201.94 352.76,200.09 336.09,203.73 334.91,207.99 			"/>
		</g>
		<polygon class="st18" points="143.04,138.44 152.62,133.27 334.91,238.52 325.33,243.69 		"/>
		<polygon class="st32" points="325.33,363.59 334.91,358.42 334.91,238.52 325.33,243.69 		"/>
		<polygon class="st19" points="325.33,363.59 334.91,358.42 334.91,238.52 325.33,243.69 		"/>
		<polygon class="st18" points="334.91,138.44 325.33,133.27 143.04,238.52 152.62,243.69 		"/>
		<polygon class="st13" points="238.97,193.83 238.97,313.73 325.33,363.59 325.33,243.69 		"/>
		<linearGradient id="SVGID_4_" gradientUnits="userSpaceOnUse" x1="257.6056" y1="393.5312" x2="301.598" y2="294.7252">
			<stop  offset="0" style="stop-color:#000000"/>
			<stop  offset="1" style="stop-color:#000000;stop-opacity:0.1"/>
		</linearGradient>
		<polygon class="st33" points="271.94,263.45 325.1,334.76 325.1,363.59 238.97,313.73 		"/>
		<polygon class="st21" points="152.62,294.42 152.62,243.69 143.04,238.52 143.04,289.25 110.13,270.24 110.13,339.41 
			143.09,358.45 143.09,358.44 152.62,363.59 185.59,382.62 185.59,313.45 		"/>
		<polygon class="st19" points="185.59,313.45 271.94,263.45 271.94,271.27 213.87,304.95 213.87,366.28 185.59,382.62 		"/>
		<polygon class="st18" points="152.62,294.42 238.97,244.41 271.94,263.45 185.59,313.45 		"/>
		<g>
			<path class="st21" d="M226.41,271.22c0,0,1.52,1.89,3.46,2.51c1.94,0.62,5.32,1.29,6.51-0.65c1.18-1.94,0.29-3.73-1.93-5.08
				c-2.22-1.35-6.76-0.54-8.05,0.85C225.54,269.8,226.41,271.22,226.41,271.22z"/>
			<path class="st22" d="M230.3,273.01c-1.94-0.62-3.46-2.51-3.46-2.51s-0.53-0.88-0.33-1.72c-0.03,0.03-0.06,0.05-0.09,0.08
				c-0.88,0.95,0,2.37,0,2.37s1.52,1.89,3.46,2.51c1.94,0.62,5.32,1.29,6.51-0.65c0.11-0.18,0.19-0.36,0.26-0.54
				C235.35,274.23,232.17,273.6,230.3,273.01z"/>
		</g>
		<g>
			<path class="st22" d="M226.02,277.36l-3.87-2.23c-0.8-0.46-1.79-0.46-2.59,0l-18.01,10.4l-3.45,1.15v1.31l0.01,0
				c0.01,0.24,0.13,0.49,0.37,0.62l4.42,2.55c0.8,0.46,1.79,0.46,2.58,0l21.09-12.18c0.25-0.14,0.38-0.4,0.38-0.65v-1.28
				L226.02,277.36z"/>
			<path class="st21" d="M198.48,286.02l21.09-12.18c0.8-0.46,1.79-0.46,2.59,0l4.42,2.55c0.5,0.29,0.5,1.01,0,1.3l-21.09,12.18
				c-0.8,0.46-1.78,0.46-2.58,0l-4.42-2.55C197.98,287.03,197.98,286.31,198.48,286.02z"/>
		</g>
		<polygon class="st21" points="189.55,321.95 210.38,309.92 210.38,324.26 189.55,336.28 		"/>
		<polygon class="st19" points="203.57,319.58 197.35,323.17 197.35,320.24 203.57,316.65 		"/>
		<polygon class="st21" points="189.55,341.28 210.38,329.25 210.38,343.59 189.55,355.62 		"/>
		<polygon class="st19" points="203.57,339.02 197.35,342.61 197.35,339.68 203.57,336.09 		"/>
		<polygon class="st21" points="189.55,360.88 210.49,348.79 210.49,363.2 189.55,375.29 		"/>
		<polygon class="st19" points="203.57,358.45 197.35,362.04 197.35,359.11 203.57,355.52 		"/>
		<g>
			<path class="st22" d="M223.8,221.51l-2.62-1.54l-0.01,0.01c-0.68-0.45-1.58-0.55-2.38-0.09l-37.47,21.63
				c-1.23,0.71-1.99,2.02-1.99,3.45v30.18c0,0.83,0.43,1.5,1.04,1.89l-0.01,0.01l2.71,1.59l2.09-2.93l35.03-20.23
				c1.23-0.71,1.99-2.02,1.99-3.45v-28.26L223.8,221.51z"/>
			<g>
				<path class="st22" d="M196.25,264.99v9.43c0,0.94,0.5,1.8,1.31,2.27l3.25,1.88c0.75,0.43,1.68,0.43,2.43,0l8.24-5.24v1.13
					c0,0.9-0.48,1.74-1.26,2.19l-6.45,3.73c-1.07,0.62-2.4,0.62-3.47,0l-3.39-1.96c-1.56-0.9-2.52-2.56-2.52-4.36v-10.42
					L196.25,264.99z"/>
				<path class="st19" d="M211.06,272.61l-3.22-1.86c-0.81-0.47-1.31-1.33-1.31-2.27v-9.42l-10.29,5.94v9.42
					c0,0.94,0.5,1.8,1.31,2.27l3.25,1.88c0.75,0.43,1.67,0.43,2.42,0l7.83-4.52C211.62,273.73,211.62,272.93,211.06,272.61z"/>
			</g>
			<path class="st14" d="M181.85,246.44v27.99l42.86-24.74v-26.35c0-1.75-1.89-2.84-3.4-1.97l-37.47,21.63
				C182.61,243.7,181.85,245.01,181.85,246.44z"/>
			<polygon class="st34" points="184.04,246.59 184.04,268.97 221.82,247.38 221.82,224.78 			"/>
			<path class="st21" d="M181.85,276.61c0,1.75,1.89,2.84,3.4,1.96l37.47-21.63c1.23-0.71,1.99-2.02,1.99-3.45v-5.02l-42.86,24.74
				V276.61z"/>
			<g>
				
					<linearGradient id="SVGID_5_" gradientUnits="userSpaceOnUse" x1="189.7503" y1="208.6089" x2="189.7503" y2="200.7292" gradientTransform="matrix(0.866 -0.5 0 1.1547 31.7131 109.5337)">
					<stop  offset="0" style="stop-color:#FE768A;stop-opacity:0"/>
					<stop  offset="1" style="stop-color:#FE768A"/>
				</linearGradient>
				<path class="st35" d="M205.88,242.29c0,0-2.46,6.9-5.71,8.24c-1.57,0.65-4.11-1.2-6.23,0.28c-2.34,1.64-3.11,3.95-4.72,5.33
					c-2.15,1.85-3.02,0.61-3.02,0.61v6l19.68-11.36V242.29z"/>
				
					<linearGradient id="SVGID_6_" gradientUnits="userSpaceOnUse" x1="189.7503" y1="211.6104" x2="189.7503" y2="201.9307" gradientTransform="matrix(0.866 -0.5 0 1.1547 31.7131 109.5337)">
					<stop  offset="0" style="stop-color:#FFCD5E;stop-opacity:0"/>
					<stop  offset="1" style="stop-color:#FFCD5E"/>
				</linearGradient>
				<path class="st36" d="M205.88,246.95c-2.71,1.19-3.91-6.04-5.66-3.19s-3.02,10.84-5.83,12.57c-2.82,1.73-4.05-3.01-5.08-3.63
					c-1.03-0.62-3.11,1.37-3.11,1.37v8.67l19.68-11.36V246.95z"/>
				<path class="st37" d="M186.2,254.08c0,0,2.08-1.99,3.11-1.37c1.03,0.62,2.26,5.36,5.08,3.63c2.82-1.73,4.09-9.71,5.83-12.57
					s2.95,4.38,5.66,3.19"/>
				<g>
					<path class="st26" d="M205.88,253.22c-0.1,0-0.18-0.08-0.18-0.18v-14.12c0-0.1,0.08-0.18,0.18-0.18c0.1,0,0.18,0.08,0.18,0.18
						v14.12C206.06,253.13,205.98,253.22,205.88,253.22z"/>
				</g>
				<g>
					<path class="st26" d="M186.2,264.58c-0.1,0-0.18-0.08-0.18-0.18v-14.12c0-0.1,0.08-0.18,0.18-0.18c0.1,0,0.18,0.08,0.18,0.18
						v14.12C186.38,264.5,186.3,264.58,186.2,264.58z"/>
				</g>
				<g>
					<path class="st26" d="M187.13,257.35c-0.07,0-0.14,0-0.21-0.01c-0.59-0.07-0.86-0.45-0.87-0.47c-0.06-0.08-0.04-0.2,0.05-0.25
						c0.08-0.06,0.2-0.04,0.25,0.04c0.01,0.01,0.2,0.27,0.63,0.32c0.4,0.05,1.09-0.08,2.12-0.96c0.66-0.57,1.19-1.31,1.75-2.1
						c0.76-1.07,1.61-2.28,2.99-3.25c1.3-0.91,2.74-0.63,4.01-0.38c0.85,0.17,1.65,0.32,2.25,0.08c3.15-1.29,5.59-8.06,5.61-8.13
						c0.03-0.1,0.14-0.14,0.23-0.11c0.1,0.03,0.15,0.14,0.11,0.23c-0.1,0.28-2.52,6.99-5.82,8.34c-0.7,0.29-1.56,0.12-2.46-0.06
						c-1.26-0.25-2.56-0.5-3.73,0.32c-1.32,0.93-2.12,2.06-2.9,3.16c-0.57,0.8-1.11,1.57-1.81,2.17
						C188.51,256.99,187.77,257.35,187.13,257.35z"/>
				</g>
				<g>
					<g>
						<path class="st26" d="M191.71,261.39c-0.1,0-0.18-0.08-0.18-0.18v-14.12c0-0.1,0.08-0.18,0.18-0.18c0.1,0,0.18,0.08,0.18,0.18
							v14.12C191.9,261.31,191.81,261.39,191.71,261.39z"/>
					</g>
					<g>
						<path class="st26" d="M200.36,256.4c-0.1,0-0.18-0.08-0.18-0.18v-14.12c0-0.1,0.08-0.18,0.18-0.18c0.1,0,0.18,0.08,0.18,0.18
							v14.12C200.54,256.32,200.46,256.4,200.36,256.4z"/>
					</g>
				</g>
				<g>
					<g>
						<g>
							<polygon class="st26" points="189.58,249.93 188.34,250.64 188.34,249.59 189.58,248.87 							"/>
						</g>
					</g>
					<g>
						<g>
							<polygon class="st26" points="190.64,250.38 188.34,251.71 188.34,251.29 190.64,249.96 							"/>
						</g>
					</g>
				</g>
				<g>
					<g>
						<g>
							<polygon class="st26" points="196.62,247.63 195.38,248.35 195.38,247.29 196.62,246.58 							"/>
						</g>
					</g>
					<g>
						<g>
							<polygon class="st26" points="197.68,248.09 195.38,249.42 195.38,249 197.68,247.67 							"/>
						</g>
					</g>
				</g>
				<g>
					<g>
						<g>
							<polygon class="st26" points="203.55,240.25 202.31,240.96 202.31,239.91 203.55,239.19 							"/>
						</g>
					</g>
					<g>
						<g>
							<polygon class="st26" points="204.61,240.7 202.31,242.03 202.31,241.61 204.61,240.28 							"/>
						</g>
					</g>
				</g>
				<g>
					<g>
						<polygon class="st26" points="217.69,232.74 209.14,237.66 209.14,235.68 217.69,230.76 						"/>
					</g>
				</g>
				<g>
					<g>
						<polygon class="st26" points="219.66,234.22 209.14,240.28 209.14,239.49 219.66,233.43 						"/>
					</g>
				</g>
				<g>
					<g>
						<polygon class="st26" points="219.66,236.55 209.14,242.62 209.14,241.83 219.66,235.76 						"/>
					</g>
				</g>
				<g>
					<g>
						<polygon class="st26" points="219.66,238.94 209.14,245 209.14,244.21 219.66,238.15 						"/>
					</g>
				</g>
				<g>
					<g>
						<polygon class="st26" points="219.66,241.27 209.14,247.33 209.14,246.54 219.66,240.48 						"/>
					</g>
				</g>
				<g>
					<g>
						<polygon class="st26" points="219.66,243.53 209.14,249.59 209.14,248.8 219.66,242.74 						"/>
					</g>
				</g>
				<g>
					<g>
						<polygon class="st26" points="219.66,245.87 209.14,251.93 209.14,251.14 219.66,245.08 						"/>
					</g>
				</g>
			</g>
		</g>
		<g>
			<path class="st11" d="M240.07,271.68c0,0-1.57-3.43-4.61-4.28c-3.04-0.85-6.98-0.43-7.15,0.25c-0.17,0.68,1.11,1.22,2.16,1.33
				c1.04,0.12,2.17,0.35,2.51,1.1c0.34,0.75-2.45,0.52-2.91,0.99c-0.46,0.46-0.46,0.87,1.1,1.51c1.57,0.64,4.23,2.08,5.45,2.03
				C237.84,274.55,240.07,271.68,240.07,271.68z"/>
			<path class="st38" d="M250.18,272.68c0,0,9.79-18.77,13.16-17.65c3.37,1.12,5.4,6.05,3.52,10.84
				c-1.88,4.79-9.47,16.61-13.22,17.08c-3.75,0.47-17.96-5.33-18.25-6.2c-0.29-0.87,1.45-6.59,4.93-6.49
				C243.8,270.36,250.18,272.68,250.18,272.68z"/>
			<path class="st13" d="M242.83,342.98c0,0,2.62,1.32,2.72,4.34c0.1,3.02-2.2,3.34-4.34,5.31c-2.14,1.97-5.8,7.38-8.23,7.38
				c-2.43,0-1.22-4.08,0.5-7.26c1.72-3.18,2.98-5.43,2.98-5.43L242.83,342.98z"/>
			<g>
				<path class="st15" d="M231.46,367.08l-0.01,0.02c-0.52-0.25-1.17-0.22-1.89,0.19c-1.68,0.97-3.04,3.58-3.04,5.82
					c0,1.28,0.45,2.14,1.14,2.49l-0.01,0.02l4.74,2.79l3.98-8.43L231.46,367.08z"/>
				<path class="st14" d="M237.41,372.41c0,2.24-1.36,4.85-3.04,5.82c-1.68,0.97-3.04-0.06-3.04-2.3c0-2.24,1.36-4.85,3.04-5.82
					C236.04,369.13,237.41,370.17,237.41,372.41z"/>
				<path class="st15" d="M235.52,373.49c0,0.86-0.52,1.85-1.16,2.22c-0.64,0.37-1.16-0.02-1.16-0.88c0-0.86,0.52-1.85,1.16-2.22
					C235,372.24,235.52,372.64,235.52,373.49z"/>
			</g>
			<g>
				<path class="st15" d="M264.59,367.08l0.01,0.02c0.52-0.25,1.17-0.22,1.89,0.19c1.68,0.97,3.04,3.58,3.04,5.82
					c0,1.28-0.45,2.14-1.14,2.49l0.01,0.02l-4.75,2.79l-3.98-8.43L264.59,367.08z"/>
				<path class="st14" d="M258.65,372.41c0,2.24,1.36,4.85,3.04,5.82c1.68,0.97,3.04-0.06,3.04-2.3c0-2.24-1.36-4.85-3.04-5.82
					C260.01,369.13,258.65,370.17,258.65,372.41z"/>
				<path class="st15" d="M260.53,373.49c0,0.86,0.52,1.85,1.16,2.22c0.64,0.37,1.16-0.02,1.16-0.88c0-0.86-0.52-1.85-1.16-2.22
					C261.05,372.24,260.53,372.64,260.53,373.49z"/>
			</g>
			<g>
				<path class="st15" d="M236.82,350.55l0.01,0.02c0.46-0.23,1.04-0.2,1.68,0.17c1.49,0.86,2.7,3.17,2.7,5.17
					c0,1.14-0.4,1.9-1.02,2.21l0.01,0.02l-4.21,2.48l-3.53-7.49L236.82,350.55z"/>
				<path class="st14" d="M231.54,355.28c0,1.99,1.21,4.3,2.7,5.17c1.49,0.86,2.7-0.05,2.7-2.04c0-1.99-1.21-4.3-2.7-5.17
					C232.75,352.38,231.54,353.29,231.54,355.28z"/>
				<path class="st15" d="M233.21,356.25c0,0.76,0.46,1.64,1.03,1.97c0.57,0.33,1.03-0.02,1.03-0.78c0-0.76-0.46-1.65-1.03-1.97
					C233.68,355.13,233.21,355.48,233.21,356.25z"/>
			</g>
			<g>
				<path class="st15" d="M260.08,350.55l-0.01,0.02c-0.46-0.23-1.04-0.2-1.68,0.17c-1.49,0.86-2.7,3.17-2.7,5.17
					c0,1.14,0.4,1.9,1.02,2.21l-0.01,0.02l4.21,2.48l3.53-7.49L260.08,350.55z"/>
				<path class="st14" d="M265.36,355.28c0,1.99-1.21,4.3-2.7,5.17c-1.49,0.86-2.7-0.05-2.7-2.04c0-1.99,1.21-4.3,2.7-5.17
					C264.15,352.38,265.36,353.29,265.36,355.28z"/>
				<path class="st15" d="M263.69,356.25c0,0.76-0.46,1.64-1.03,1.97c-0.57,0.33-1.03-0.02-1.03-0.78c0-0.76,0.46-1.65,1.03-1.97
					C263.23,355.13,263.69,355.48,263.69,356.25z"/>
			</g>
			<polygon class="st15" points="231.6,350.6 232.19,353.07 242.17,359.51 243.61,356.46 			"/>
			<polygon class="st14" points="248.34,355.59 245.58,351.58 234.31,348.09 231.6,350.6 243.65,356.73 			"/>
			<polygon class="st15" points="265.04,350.6 264.45,353.07 254.47,359.51 253.03,356.46 			"/>
			<polygon class="st14" points="248.3,355.59 251.06,351.58 262.33,348.09 265.04,350.6 252.99,356.73 			"/>
			<polygon class="st15" points="227,368.58 228.23,371.31 231.96,374.01 248.3,363.28 248.3,358.16 			"/>
			<polygon class="st14" points="244.17,355.59 227,368.58 231.27,371.69 248.3,360.09 248.3,355.59 			"/>
			<polygon class="st15" points="269.61,368.58 268.38,371.31 264.64,374.01 248.3,363.28 248.3,358.16 			"/>
			<polygon class="st14" points="252.44,355.59 269.61,368.58 265.33,371.69 248.3,360.09 248.3,355.59 			"/>
			<path class="st14" d="M248.3,361.42L248.3,361.42c-2.59,0-4.69-2.1-4.69-4.69v-21.97h9.38v21.97
				C252.99,359.32,250.89,361.42,248.3,361.42z"/>
			<path class="st9" d="M236.69,297.23c0,0-4.83-1.47-9.28,0c-4.45,1.47-4.75,6.31-3.15,12.4c1.6,6.09,12.43,38.36,12.43,38.36
				s4.49-0.46,6.03-2.31c1.54-1.85-2.62-11.7-3.07-17.06C239.2,323.26,236.69,297.23,236.69,297.23z"/>
			<path class="st13" d="M235.87,348.57c0,0,2.62,1.32,2.72,4.34c0.1,3.02-2.2,3.34-4.34,5.31c-2.14,1.97-5.8,7.38-8.23,7.38
				c-2.42,0-1.22-4.08,0.5-7.26c1.72-3.18,2.98-5.43,2.98-5.43L235.87,348.57z"/>
			<path class="st11" d="M229.5,302.15c0,0-4.83-1.47-9.28,0c-4.45,1.47-4.75,6.31-3.15,12.4c1.6,6.09,12.43,38.36,12.43,38.36
				s4.49-0.46,6.03-2.31c1.54-1.85-2.62-11.7-3.07-17.06C232.01,328.18,229.5,302.15,229.5,302.15z"/>
			<g>
				<path class="st6" d="M267.5,320.76l-16.2-9.35c-1.94-1.12-4.32-1.12-6.26,0l-14.54,8.4l-7-0.18v6.48l0,0
					c0,1.32,0.65,2.64,1.96,3.39l21.9,12.64c1.94,1.12,4.32,1.12,6.26,0l19.59-11.31c1.3-0.75,1.96-2.07,1.96-3.39v-6.48
					L267.5,320.76z"/>
				<path class="st5" d="M225.46,316.23l19.59-11.31c1.94-1.12,4.32-1.12,6.26,0l21.9,12.64c2.61,1.51,2.61,5.28,0,6.78
					l-19.59,11.31c-1.94,1.12-4.32,1.12-6.26,0l-21.9-12.64C222.85,321.51,222.85,317.74,225.46,316.23z"/>
			</g>
			<path class="st38" d="M243.23,298.4l-6.39-1.27c0,0-2.66,1.53-8.68,5.01c-6.02,3.48-6.59,12.28-5.62,16.16
				c0.97,3.88,14.69,9.1,23.88,10.65c9.19,1.55,16.92-2.11,20.79-4.82c3.87-2.72,5.22-10.84,3.09-14.8
				C268.17,305.36,243.23,298.4,243.23,298.4z"/>
			<path class="st39" d="M265.03,258.71c0,0,6.08,3.77,5.87,8.29c-0.21,4.52,0.03,19.76,0.01,25.87c-0.02,6.11,1.15,18.3-1.37,20.62
				c-2.52,2.32-15.29,7.35-23.79,3.29c-8.51-4.06-8.58-9.13-8.35-12.69c0.23-3.56,4.51-3.75,4.79-9.36
				c0.28-5.61-2.56-7.16-2.21-12.76c0.36-5.61-2.05-9.42,2.21-13.67C246.43,264.04,265.03,258.71,265.03,258.71z"/>
			<path class="st11" d="M219.14,284.59c0,0-1.88-3.55-3.03-3.38c-1.15,0.17-0.6,1.68-0.6,1.68s-2.35-1.81-3.42-2.03
				c-1.07-0.21-3.97,0.68-5.13,2.99c-1.15,2.31,1.58,4.66,3.89,5.9c2.31,1.24,4.34,1.18,4.34,1.18L219.14,284.59z"/>
			<path class="st38" d="M229.01,286.85c0,0,9.79-18.77,13.16-17.65c3.37,1.12,5.4,6.05,3.52,10.83
				c-1.89,4.79-9.47,16.61-13.22,17.08c-3.75,0.47-17.96-5.33-18.25-6.2c-0.29-0.87,1.45-6.59,4.93-6.48
				C222.63,284.52,229.01,286.85,229.01,286.85z"/>
			<path class="st11" d="M240.9,238.26c0,0-1.65,14.92,1.27,17.26c2.92,2.34,5.55,3.19,5.55,3.19S246.27,238.26,240.9,238.26z"/>
			<path class="st17" d="M244.39,226.07c0,0,2.13-3.48,8.12-2.32c6,1.16,13.34,6.77,14.5,14.5c1.16,7.74-1.15,13.64,1.1,19.87
				c2.24,6.23,4.27,8.12,1.95,14.21c-2.32,6.09-13.05,12.04-17.4,9.57c-4.35-2.47-6.09-5.95-7.25-12.04
				c-1.16-6.09,0.29-15.87-0.29-19.44c-0.58-3.57-2.94-10.15-2.94-10.15s-4.17,0.15-4.02-5.51
				C238.29,229.12,241.34,226.22,244.39,226.07z"/>
			<g>
				<path class="st5" d="M279.07,278.52l-5.83-3.36c-0.19-0.13-0.39-0.25-0.6-0.35l-0.01-0.01v0c-0.99-0.45-2.19-0.46-3.27,0.16
					l-20.89,12.06c-3.3,1.91-5.34,5.43-5.34,9.25v6.59c0,1.57,0.96,2.8,2.23,3.32l0,0l5.38,3.14l9.09-9.88l9.58-5.53
					c3.3-1.91,5.34-5.43,5.34-9.25v-1.45L279.07,278.52z"/>
				<path class="st6" d="M254.61,309.5l20.89-12.06c3.3-1.91,5.34-5.43,5.34-9.25v-6.59c0-2.77-2.99-4.49-5.39-3.11l-20.89,12.06
					c-3.3,1.91-5.34,5.43-5.34,9.25v6.59C249.22,309.16,252.21,310.89,254.61,309.5z"/>
			</g>
			<path class="st14" d="M272.1,331.08v-41.97c0-1.93-1.03-3.72-2.71-4.69l0,0l-5.29,3.05v48.61v0c1.4,0.81,3.13,0.81,4.53,0
				l0.87-0.5C271.11,334.65,272.1,332.94,272.1,331.08z"/>
		</g>
		<polygon class="st20" points="159.5,253.22 167.93,248.35 167.93,260.32 159.5,265.19 		"/>
		<polygon class="st34" points="165.58,263.92 174,259.05 174,271.02 165.58,275.89 		"/>
		<polygon class="st24" points="227.12,224.72 235.55,219.86 235.55,231.83 227.12,236.69 		"/>
		<g>
			<polygon class="st40" points="167.93,293.17 182.46,284.77 200.18,295 185.64,303.39 			"/>
			<g>
				<polygon class="st41" points="172.11,293.02 182.54,286.99 183.38,287.48 172.95,293.5 				"/>
				<polygon class="st41" points="174.44,294.43 183.1,289.43 183.94,289.92 175.28,294.92 				"/>
				<polygon class="st41" points="176.63,295.6 185.3,290.6 186.14,291.09 177.47,296.09 				"/>
				<polygon class="st41" points="178.84,296.88 187.5,291.88 188.34,292.37 179.68,297.37 				"/>
				<polygon class="st41" points="181.02,298.15 189.68,293.15 190.52,293.63 181.86,298.63 				"/>
				<polygon class="st41" points="183.21,299.41 191.88,294.41 192.71,294.89 184.05,299.89 				"/>
				<polygon class="st41" points="185.34,300.69 194,295.69 194.84,296.17 186.18,301.17 				"/>
			</g>
		</g>
	</g>
	<g>
		<path class="st42" d="M442.03,168.6c0,16.65-13.5,30.16-30.16,30.16c-16.65,0-30.16-13.5-30.16-30.16
			c0-16.65,13.5-30.16,30.16-30.16C428.53,138.44,442.03,151.95,442.03,168.6z"/>
		<path class="st43" d="M411.87,138.44c16.66,0,30.16,13.5,30.16,30.16c0,16.65-13.5,30.16-30.16,30.16
			c-16.65,0-30.16-13.5-30.16-30.16"/>
		<path class="st14" d="M428,168.6c0,8.91-7.22,16.13-16.13,16.13c-8.91,0-16.13-7.22-16.13-16.13c0-8.91,7.22-16.13,16.13-16.13
			C420.78,152.47,428,159.69,428,168.6z"/>
		<text transform="matrix(1 0 0 1 400.8481 172.2661)" class="st0 st44 st45">75%</text>
	</g>
	<g>
		
			<ellipse transform="matrix(0.0712 -0.9975 0.9975 0.0712 -180.1526 285.8656)" class="st42" cx="63.42" cy="239.67" rx="30.16" ry="30.16"/>
		<path class="st46" d="M63.42,209.51c16.65,0,30.16,13.5,30.16,30.16s-13.5,30.16-30.16,30.16"/>
		<path class="st14" d="M79.55,239.67c0,8.91-7.22,16.13-16.13,16.13c-8.91,0-16.13-7.22-16.13-16.13c0-8.91,7.22-16.13,16.13-16.13
			C72.33,223.54,79.55,230.76,79.55,239.67z"/>
		<text transform="matrix(1 0 0 1 52.3984 243.3325)" class="st0 st44 st45">50%</text>
	</g>
	<path class="st42" d="M368.68,375.29c0,16.65-13.5,30.16-30.16,30.16c-16.65,0-30.16-13.5-30.16-30.16s13.5-30.16,30.16-30.16
		C355.18,345.14,368.68,358.64,368.68,375.29z"/>
	<path class="st47" d="M338.53,345.14c16.66,0,30.16,13.5,30.16,30.16"/>
	<circle class="st14" cx="338.53" cy="375.29" r="16.13"/>
	<text transform="matrix(1 0 0 1 327.5044 378.9575)" class="st0 st44 st45">25%</text>
	<g>
		<path class="st48" d="M313.64,78.91c0,16.65-13.5,30.16-30.16,30.16s-30.16-13.5-30.16-30.16c0-16.65,13.5-30.16,30.16-30.16
			S313.64,62.25,313.64,78.91z"/>
		<path class="st14" d="M299.61,78.91c0,8.91-7.22,16.13-16.13,16.13c-8.91,0-16.13-7.22-16.13-16.13c0-8.91,7.22-16.13,16.13-16.13
			C292.39,62.78,299.61,70,299.61,78.91z"/>
		<text transform="matrix(1 0 0 1 269.2026 82.5728)" class="st0 st44 st45">100%</text>
	</g>
	<polyline class="st49" points="286.49,303.11 293.83,303.11 293.83,374.16 301.91,374.16 	"/>
	<polyline class="st49" points="119.96,184.77 63.42,184.77 63.42,196.12 	"/>
	<polyline class="st49" points="235.36,114.55 235.36,84.39 244.08,84.39 	"/>
	<line class="st49" x1="353.91" y1="167.99" x2="370.41" y2="167.99"/>
	<text transform="matrix(1 0 0 1 38.2886 286.1333)" class="st29 st44 st50">Lorem Ipsum</text>
	<text transform="matrix(1 0 0 1 38.2886 294.2378)"><tspan x="0" y="0" class="st32 st44 st51">Lorem ipsum dolor</tspan><tspan x="0" y="6.51" class="st32 st44 st51">sit amet.</tspan></text>
	<g>
		<text transform="matrix(0.9899 0 -0.1418 0.9899 40.2769 64.3269)" class="st14 st44 st52">Our Team</text>
		<g>
			<text transform="matrix(1 0 0 1 40.2915 87.2329)" class="st19 st44 st53">We are here to help.</text>
		</g>
	</g>
	<text transform="matrix(1 0 0 1 315.0649 420.3208)" class="st29 st44 st50">Lorem Ipsum</text>
	<text transform="matrix(1 0 0 1 315.0659 428.4243)"><tspan x="0" y="0" class="st32 st44 st51">Lorem ipsum dolor</tspan><tspan x="0" y="6.51" class="st32 st44 st51">sit amet.</tspan></text>
	<text transform="matrix(1 0 0 1 389.813 218.3408)" class="st29 st44 st50">Design Team</text>
	<text transform="matrix(1 0 0 1 389.814 226.4448)"><tspan x="0" y="0" class="st32 st44 st51">Lorem ipsum dolor</tspan><tspan x="0" y="6.51" class="st32 st44 st51">sit amet.</tspan></text>
	<text transform="matrix(1 0 0 1 258.646 129.2197)" class="st29 st44 st50">Sales Team</text>
	<text transform="matrix(1 0 0 1 258.647 137.3237)"><tspan x="0" y="0" class="st32 st44 st51">Lorem ipsum dolor</tspan><tspan x="0" y="6.51" class="st32 st44 st51">sit amet.</tspan></text>
</g>
<g id="Designed_By_Freepik" class="st54">
	<g class="st55">
		<g id="XMLID_319_">
			<g id="XMLID_338_">
				<path id="XMLID_346_" class="st56" d="M260.1,465.47c-0.43,0.44-0.8,0.93-1.11,1.45l-0.47-0.24c-0.07-0.3-0.35-0.5-0.66-0.47
					c-0.33,0.04-0.57,0.34-0.53,0.67c0.04,0.33,0.34,0.57,0.67,0.53c0.07-0.01,0.13-0.03,0.18-0.05l0.45,0.23
					c-0.25,0.55-0.43,1.14-0.54,1.74l0.75,0.13c0.23-1.31,0.85-2.51,1.79-3.47L260.1,465.47z"/>
				<path id="XMLID_345_" class="st56" d="M265.59,463.16c-0.17,0-0.34,0.01-0.51,0.02l-0.07-0.63c0.19-0.15,0.3-0.39,0.27-0.64
					c-0.05-0.39-0.4-0.67-0.79-0.63c-0.39,0.05-0.67,0.4-0.63,0.8c0.03,0.25,0.19,0.46,0.41,0.56l0.07,0.62
					c-0.71,0.12-1.4,0.33-2.06,0.65l0.33,0.68c0.93-0.45,1.94-0.67,3-0.67c0.5,0,0.99,0.05,1.47,0.16l0.16-0.74
					C266.69,463.22,266.14,463.16,265.59,463.16z"/>
				<path id="XMLID_344_" class="st56" d="M272.19,465.71c0.33-0.04,0.57-0.34,0.53-0.67c-0.04-0.33-0.34-0.57-0.67-0.53
					c-0.31,0.04-0.54,0.3-0.53,0.61l-0.42,0.36c-0.42-0.43-0.89-0.81-1.41-1.14l-0.4,0.64c1.13,0.71,2.02,1.73,2.56,2.93l0.69-0.31
					c-0.25-0.55-0.57-1.07-0.94-1.54l0.4-0.35C272.06,465.72,272.13,465.72,272.19,465.71z"/>
				<path id="XMLID_343_" class="st56" d="M265.04,473.37c-0.39,0.02-0.77,0.03-1.16,0.03c-0.88,0-1.73-0.06-2.48-0.18
					c-0.39-0.06-0.85-0.16-1.27-0.29c1.05,1.86,3.07,3.12,5.39,3.12c2.86,0,5.26-1.92,5.95-4.5c-0.68,0.45-1.51,0.83-2.46,1.12
					C267.84,473.05,266.46,473.29,265.04,473.37z"/>
				<path id="XMLID_339_" class="st56" d="M265.59,464.68c-3.35,0-6.08,2.67-6.08,5.94c0,0.43,0.05,0.85,0.14,1.26
					c0.67,0.48,2.71,0.89,5.35,0.73c2.88-0.17,5.3-0.96,6.67-2.16c0-0.2-0.02-0.39-0.04-0.58
					C271.24,466.91,268.65,464.68,265.59,464.68z M263.43,471.19c-1.02,0-1.85-0.83-1.85-1.85c0-1.02,0.83-1.85,1.85-1.85
					c1.02,0,1.85,0.83,1.85,1.85C265.28,470.36,264.45,471.19,263.43,471.19z M268.17,470.29c-0.75,0-1.36-0.61-1.36-1.36
					s0.61-1.36,1.36-1.36s1.36,0.61,1.36,1.36S268.92,470.29,268.17,470.29z"/>
			</g>
			<path id="XMLID_336_" class="st56" d="M281.6,466.55c-0.29-0.12-0.81-0.31-1.38-0.24c-0.55,0.07-0.84,0.34-0.84,1.01v0.87h2.23
				v1.72h-2.23v5.45h-1.93v-5.45h-1.34v-1.72h1.34v-0.89c0-1.68,0.9-2.78,2.57-2.78c0.64,0,1.16,0.12,1.59,0.31V466.55z"/>
			<path id="XMLID_334_" class="st56" d="M286.3,469.88c-0.18-0.03-0.36-0.05-0.53-0.05c-0.9,0-1.51,0.55-1.51,1.61v3.91h-1.93
				v-7.17h1.87v0.79c0.45-0.67,1.14-0.98,2.02-0.98c0.41,0,0.85,0.13,1.09,0.34L286.3,469.88z"/>
			<path id="XMLID_331_" class="st56" d="M293.96,471.76c0,0.22-0.01,0.49-0.04,0.65h-5.08c0.21,1.04,0.93,1.49,1.84,1.49
				c0.62,0,1.29-0.25,1.81-0.69l1.13,1.24c-0.81,0.75-1.85,1.09-3.06,1.09c-2.2,0-3.72-1.5-3.72-3.75c0-2.26,1.48-3.8,3.63-3.8
				C292.54,467.99,293.96,469.52,293.96,471.76z M288.85,471.09h3.17c-0.18-0.92-0.73-1.44-1.56-1.44
				C289.55,469.65,289.02,470.2,288.85,471.09z"/>
			<path id="XMLID_328_" class="st56" d="M301.62,471.76c0,0.22-0.01,0.49-0.04,0.65h-5.08c0.21,1.04,0.93,1.49,1.84,1.49
				c0.62,0,1.3-0.25,1.81-0.69l1.13,1.24c-0.81,0.75-1.85,1.09-3.06,1.09c-2.2,0-3.72-1.5-3.72-3.75c0-2.26,1.48-3.8,3.63-3.8
				C300.2,467.99,301.61,469.52,301.62,471.76z M296.5,471.09h3.18c-0.18-0.92-0.73-1.44-1.56-1.44
				C297.21,469.65,296.67,470.2,296.5,471.09z"/>
			<path id="XMLID_325_" class="st56" d="M309.96,471.76c0,2.15-1.5,3.77-3.47,3.77c-0.96,0-1.64-0.38-2.11-0.93v3.71h-1.92v-10.13
				h1.89v0.79c0.47-0.58,1.15-0.98,2.14-0.98C308.47,467.99,309.96,469.61,309.96,471.76z M304.29,471.76
				c0,1.13,0.75,1.98,1.84,1.98c1.14,0,1.85-0.88,1.85-1.98c0-1.1-0.71-1.98-1.85-1.98C305.04,469.79,304.29,470.63,304.29,471.76z"
				/>
			<path id="XMLID_322_" class="st56" d="M313.07,465.84c0,0.7-0.54,1.23-1.24,1.23c-0.7,0-1.23-0.53-1.23-1.23
				c0-0.7,0.53-1.24,1.23-1.24C312.53,464.59,313.07,465.14,313.07,465.84z M312.81,475.35h-1.93v-7.17h1.93V475.35z"/>
			<path id="XMLID_320_" class="st56" d="M316.03,470.74l2.7-2.55h2.37l-3.48,3.38l3.5,3.8h-2.38l-2.72-2.9v2.9h-1.93V464.7h1.93
				V470.74z"/>
		</g>
		<g>
			<path class="st56" d="M184.41,475.29v-1.05c-0.53,0.72-1.39,1.23-2.39,1.23c-1.85,0-3.15-1.41-3.15-3.71
				c0-2.26,1.29-3.72,3.15-3.72c0.95,0,1.82,0.47,2.39,1.25v-3.76h1.1v9.77H184.41z M184.41,473.37v-3.21
				c-0.4-0.62-1.25-1.14-2.12-1.14c-1.42,0-2.27,1.17-2.27,2.74c0,1.57,0.85,2.72,2.27,2.72
				C183.17,474.48,184.02,473.99,184.41,473.37z"/>
			<path class="st56" d="M186.93,471.74c0-2.05,1.46-3.71,3.49-3.71c2.14,0,3.4,1.67,3.4,3.79v0.28h-5.73
				c0.09,1.33,1.03,2.45,2.55,2.45c0.81,0,1.63-0.32,2.18-0.89l0.53,0.72c-0.7,0.7-1.66,1.08-2.81,1.08
				C188.44,475.46,186.93,473.96,186.93,471.74z M190.4,468.95c-1.51,0-2.26,1.27-2.31,2.36h4.64
				C192.72,470.25,192.01,468.95,190.4,468.95z"/>
			<path class="st56" d="M194.61,474.35l0.57-0.79c0.47,0.54,1.36,1.01,2.33,1.01c1.08,0,1.67-0.51,1.67-1.22
				c0-1.71-4.38-0.66-4.38-3.28c0-1.1,0.95-2.04,2.64-2.04c1.2,0,2.05,0.45,2.62,1.03l-0.51,0.76c-0.42-0.51-1.2-0.89-2.11-0.89
				c-0.97,0-1.57,0.48-1.57,1.11c0,1.55,4.38,0.53,4.38,3.28c0,1.19-0.95,2.14-2.78,2.14C196.31,475.46,195.32,475.11,194.61,474.35
				z"/>
			<path class="st56" d="M201.48,466.47c0-0.41,0.34-0.75,0.73-0.75c0.41,0,0.75,0.34,0.75,0.75c0,0.41-0.34,0.73-0.75,0.73
				C201.81,467.2,201.48,466.88,201.48,466.47z M201.67,475.29v-7.08h1.1v7.08H201.67z"/>
			<path class="st56" d="M204.58,477.11l0.56-0.82c0.59,0.7,1.29,0.97,2.3,0.97c1.17,0,2.27-0.57,2.27-2.12v-1.01
				c-0.51,0.72-1.38,1.26-2.37,1.26c-1.85,0-3.15-1.38-3.15-3.66c0-2.27,1.29-3.68,3.15-3.68c0.95,0,1.8,0.47,2.37,1.25v-1.07h1.1
				v6.87c0,2.34-1.64,3.08-3.37,3.08C206.24,478.16,205.42,477.93,204.58,477.11z M209.71,473.25v-3.09
				c-0.38-0.62-1.23-1.14-2.11-1.14c-1.42,0-2.27,1.13-2.27,2.7c0,1.55,0.85,2.7,2.27,2.7
				C208.48,474.41,209.33,473.87,209.71,473.25z"/>
			<path class="st56" d="M217.41,475.29v-4.63c0-1.25-0.63-1.64-1.58-1.64c-0.86,0-1.69,0.53-2.09,1.1v5.17h-1.1v-7.08h1.1v1.03
				c0.5-0.59,1.46-1.2,2.52-1.2c1.48,0,2.26,0.75,2.26,2.29v4.97H217.41z"/>
			<path class="st56" d="M219.93,471.74c0-2.05,1.46-3.71,3.49-3.71c2.14,0,3.4,1.67,3.4,3.79v0.28h-5.73
				c0.09,1.33,1.03,2.45,2.55,2.45c0.81,0,1.63-0.32,2.18-0.89l0.53,0.72c-0.7,0.7-1.66,1.08-2.81,1.08
				C221.44,475.46,219.93,473.96,219.93,471.74z M223.4,468.95c-1.51,0-2.26,1.27-2.31,2.36h4.64
				C225.72,470.25,225.02,468.95,223.4,468.95z"/>
			<path class="st56" d="M233.35,475.29v-1.05c-0.53,0.72-1.39,1.23-2.39,1.23c-1.85,0-3.15-1.41-3.15-3.71
				c0-2.26,1.29-3.72,3.15-3.72c0.95,0,1.82,0.47,2.39,1.25v-3.76h1.1v9.77H233.35z M233.35,473.37v-3.21
				c-0.4-0.62-1.25-1.14-2.12-1.14c-1.42,0-2.27,1.17-2.27,2.74c0,1.57,0.85,2.72,2.27,2.72
				C232.1,474.48,232.95,473.99,233.35,473.37z"/>
			<path class="st56" d="M239.69,475.29v-9.77h1.1v3.76c0.57-0.78,1.42-1.25,2.39-1.25c1.85,0,3.15,1.46,3.15,3.72
				c0,2.3-1.3,3.71-3.15,3.71c-1,0-1.86-0.51-2.39-1.23v1.05H239.69z M242.9,474.48c1.44,0,2.29-1.16,2.29-2.72
				c0-1.57-0.85-2.74-2.29-2.74c-0.86,0-1.73,0.53-2.11,1.14v3.21C241.17,473.99,242.04,474.48,242.9,474.48z"/>
			<path class="st56" d="M247.53,477.06c0.16,0.07,0.43,0.12,0.6,0.12c0.48,0,0.81-0.16,1.05-0.75l0.47-1.07l-2.96-7.15h1.19
				l2.36,5.8l2.34-5.8h1.2l-3.54,8.51c-0.42,1.03-1.14,1.42-2.08,1.44c-0.23,0-0.6-0.04-0.81-0.1L247.53,477.06z"/>
		</g>
	</g>
</g>
</svg>
